<svg width="37" height="35" viewBox="0 0 37 35" fill="none" xmlns="http://www.w3.org/2000/svg">
<path d="M18.5 35C28.6206 35 37 27.0564 37 17.5C37 7.92647 28.6025 0 18.4819 0C8.37941 0 0 7.92647 0 17.5C0 27.0564 8.39755 35 18.5 35ZM18.5 32.0833C9.93922 32.0833 3.10147 25.598 3.10147 17.5C3.10147 9.40196 9.92108 2.91667 18.4819 2.91667C27.0426 2.91667 33.8985 9.40196 33.9167 17.5C33.9348 25.598 27.0608 32.0833 18.5 32.0833ZM9.01422 19.3529H18.4819C19.1892 19.3529 19.7515 18.8382 19.7515 18.152V6.58824C19.7515 5.91912 19.1892 5.40441 18.4819 5.40441C17.7745 5.40441 17.2304 5.91912 17.2304 6.58824V16.9681H9.01422C8.28873 16.9681 7.74461 17.4828 7.74461 18.152C7.74461 18.8382 8.28873 19.3529 9.01422 19.3529Z" fill="#394130"/>
</svg>
