<svg width="36" height="39" viewBox="0 0 36 39" fill="none" xmlns="http://www.w3.org/2000/svg">
<g clip-path="url(#clip0_125_740)">
<path d="M12.0227 3.5511H4.52271C4.22527 3.52038 3.92847 3.61627 3.69515 3.81848C3.46184 4.02068 3.31033 4.31332 3.27271 4.63443V36.0511H13.2727V4.63443C13.2351 4.31332 13.0836 4.02068 12.8503 3.81848C12.6169 3.61627 12.3201 3.52038 12.0227 3.5511Z" fill="#BFAEA0"/>
<path d="M33.0427 33.9819L26.1027 14.1569C26.0561 14.0239 25.9858 13.9021 25.8957 13.7986C25.8056 13.695 25.6976 13.6116 25.5778 13.5533C25.4581 13.4949 25.3288 13.4627 25.1975 13.4585C25.0663 13.4543 24.9355 13.4781 24.8127 13.5286L21.2727 15.0236V10.0511C21.2727 9.76379 21.1673 9.48824 20.9798 9.28507C20.7923 9.08191 20.5379 8.96777 20.2727 8.96777H15.2727V36.0511H21.2727V16.2153L28.2027 36.0511L33.0427 33.9819Z" fill="#BFAEA0"/>
</g>
<defs>
<clipPath id="clip0_125_740">
<rect width="36" height="39" fill="white"/>
</clipPath>
</defs>
</svg>
